<svg width="25" height="26" viewBox="0 0 25 26" fill="none" xmlns="http://www.w3.org/2000/svg">
<path d="M0.000494786 6.12268C-0.0402882 3.81312 2.44748 0.895778 4.73133 0.774222C5.42464 0.733703 6.2403 1.17941 6.77048 1.70615C7.34144 2.23289 7.54536 3.1243 7.99397 3.7726C9.09511 5.35283 9.01355 6.52787 7.21909 7.58135C5.62855 8.51328 5.42464 10.053 6.60735 11.3496C9.01355 13.9833 11.5421 16.4955 14.1522 18.8861C15.5388 20.1826 16.9255 19.7775 18.1489 18.2783C19.6579 16.4549 21.7379 16.698 24.2664 18.9266C25.3268 19.8585 25.1636 21.7224 23.8178 23.2621C22.2272 25.0449 20.4328 25.8147 17.8635 25.3285C9.29903 23.6672 1.06085 15.1989 0.000494786 6.68994C0.0412778 6.52787 0.000494786 6.32528 0.000494786 6.12268Z" fill="#B44B1B"/>
<path d="M22.7574 11.2685C22.7166 11.2685 22.7166 11.2685 22.6759 11.2685C22.1049 11.228 21.6971 10.7418 21.7379 10.1745C21.901 8.31069 21.2892 6.44683 20.0657 5.02868C18.883 3.57001 17.1294 2.71912 15.2534 2.55704C14.6824 2.51652 14.2746 2.0303 14.3153 1.46304C14.3561 0.895778 14.8455 0.490592 15.4165 0.53111C17.8635 0.733703 20.0657 1.86823 21.6563 3.69156C23.2468 5.55542 23.9809 7.9055 23.777 10.2961C23.7362 10.8634 23.2876 11.2685 22.7574 11.2685Z" fill="#B44B1B"/>
<path d="M18.3529 11.9979C18.3121 11.9979 18.3121 11.9979 18.2713 11.9979C17.7003 11.9574 17.2925 11.4711 17.3333 10.9039C17.4149 9.93143 17.0886 8.95899 16.4768 8.18913C15.8243 7.41928 14.9271 6.97357 13.9483 6.89254C13.3773 6.85202 12.9695 6.36579 13.0103 5.79853C13.0511 5.23127 13.5405 4.82609 14.1114 4.8666C15.6612 4.98816 17.0478 5.7175 18.0266 6.85202C19.0054 8.02706 19.4948 9.48573 19.3724 11.0254C19.3317 11.5927 18.883 11.9979 18.3529 11.9979Z" fill="#B44B1B"/>
</svg>
