<svg width="37" height="38" viewBox="0 0 37 38" fill="none" xmlns="http://www.w3.org/2000/svg">
<path d="M26.9963 32.7851C26.7504 32.786 26.5079 32.7281 26.2891 32.6159L18.4486 28.5112L10.608 32.6159C10.3534 32.7498 10.0664 32.8096 9.7795 32.7884C9.49263 32.7673 9.21744 32.6661 8.98523 32.4963C8.75301 32.3266 8.57308 32.0951 8.46588 31.8281C8.35869 31.5612 8.32853 31.2696 8.37885 30.9863L9.91621 22.331L3.58227 16.1815C3.38466 15.9843 3.24447 15.737 3.17676 15.4662C3.10905 15.1954 3.11637 14.9112 3.19793 14.6442C3.28704 14.3709 3.45095 14.1282 3.67106 13.9434C3.89117 13.7586 4.15867 13.6392 4.4432 13.5988L13.2062 12.3228L17.0649 4.43609C17.1908 4.17617 17.3874 3.95696 17.6321 3.80358C17.8768 3.6502 18.1598 3.56885 18.4486 3.56885C18.7374 3.56885 19.0203 3.6502 19.265 3.80358C19.5098 3.95696 19.7063 4.17617 19.8322 4.43609L23.7371 12.3074L32.5001 13.5834C32.7846 13.6238 33.0521 13.7432 33.2722 13.928C33.4923 14.1128 33.6562 14.3556 33.7453 14.6288C33.8269 14.8958 33.8342 15.18 33.7665 15.4508C33.6988 15.7217 33.5586 15.969 33.361 16.1662L27.0271 22.3156L28.5644 30.971C28.6193 31.2592 28.5906 31.5571 28.4816 31.8295C28.3726 32.1019 28.188 32.3375 27.9495 32.5083C27.6711 32.7034 27.3359 32.8007 26.9963 32.7851Z" fill="#E4CD00"/>
</svg>
